<svg xmlns="http://www.w3.org/2000/svg" width="1600" height="900" viewBox="0 0 1600 900" role="img" aria-labelledby="title desc">
  <title id="title">Arbiter beta preview</title>
  <desc id="desc">An abstract visual for Arbiter latent reasoning and verified coding outcomes.</desc>
  <defs>
    <linearGradient id="bg" x1="0" y1="0" x2="1" y2="1">
      <stop offset="0" stop-color="#11100c"/>
      <stop offset="0.54" stop-color="#18231f"/>
      <stop offset="1" stop-color="#0c1114"/>
    </linearGradient>
    <radialGradient id="core" cx="50%" cy="50%" r="50%">
      <stop offset="0" stop-color="#d7b56d" stop-opacity="0.62"/>
      <stop offset="0.45" stop-color="#156054" stop-opacity="0.34"/>
      <stop offset="1" stop-color="#156054" stop-opacity="0"/>
    </radialGradient>
    <filter id="blur"><feGaussianBlur stdDeviation="20"/></filter>
  </defs>
  <rect width="1600" height="900" fill="url(#bg)"/>
  <g opacity="0.12" stroke="#f4efe3" stroke-width="1">
    <path d="M0 180H1600M0 360H1600M0 540H1600M0 720H1600"/>
    <path d="M200 0V900M400 0V900M600 0V900M800 0V900M1000 0V900M1200 0V900M1400 0V900"/>
  </g>
  <circle cx="1030" cy="452" r="280" fill="url(#core)" filter="url(#blur)"/>
  <g fill="none" stroke-linecap="round">
    <path d="M702 455C820 310 1038 302 1182 438C1268 520 1370 548 1460 488" stroke="#d7b56d" stroke-width="9" opacity="0.9"/>
    <path d="M706 515C846 618 1032 626 1206 516C1282 468 1370 456 1460 508" stroke="#5ab5a8" stroke-width="5" opacity="0.58"/>
    <path d="M734 394C900 482 1060 474 1216 368" stroke="#f4efe3" stroke-width="3" opacity="0.3"/>
  </g>
  <g fill="#f4efe3" opacity="0.88">
    <circle cx="760" cy="454" r="5"/>
    <circle cx="890" cy="374" r="4"/>
    <circle cx="1036" cy="364" r="6"/>
    <circle cx="1196" cy="440" r="5"/>
    <circle cx="1354" cy="512" r="4"/>
    <circle cx="955" cy="586" r="4"/>
    <circle cx="1178" cy="548" r="4"/>
  </g>
  <g font-family="Hanken Grotesk, Segoe UI, Arial, sans-serif" fill="#f4efe3">
    <text x="110" y="148" font-size="82" font-weight="600">Arbiter 0.1 beta</text>
    <text x="116" y="206" font-size="30" fill="#cfc7b7">Latent reasoning for verified code.</text>
    <text x="116" y="452" font-size="42" font-weight="600">Less token guesswork.</text>
    <text x="116" y="504" font-size="42" font-weight="600">More checked outcomes.</text>
    <text x="118" y="562" font-size="23" fill="#cfc7b7">A coding model route that reasons before it writes, then lets evidence decide.</text>
    <text x="116" y="774" font-size="24" fill="#d8d0c0">OpenAI-compatible beta - Ornith-family LLMs - verifier-grounded agentic coding</text>
  </g>
</svg>
